<svg width="118" height="161" viewBox="0 0 118 161" fill="none" xmlns="http://www.w3.org/2000/svg">
<rect x="0.25" width="117" height="161" fill="white"/>
<path d="M3.82225 110V101.6H4.69825V109.232H9.77425V101.6H10.6503V110H3.82225ZM11.1543 111.968V109.76L11.3823 110H9.77425V109.232H11.9823V111.968H11.1543ZM16.0683 110.06C15.4123 110.06 14.8363 109.924 14.3403 109.652C13.8443 109.372 13.4563 108.992 13.1763 108.512C12.8963 108.024 12.7563 107.468 12.7563 106.844C12.7563 106.22 12.8883 105.668 13.1523 105.188C13.4243 104.708 13.7923 104.332 14.2563 104.06C14.7283 103.78 15.2563 103.64 15.8403 103.64C16.4323 103.64 16.9563 103.776 17.4123 104.048C17.8763 104.312 18.2403 104.688 18.5043 105.176C18.7683 105.656 18.9003 106.212 18.9003 106.844C18.9003 106.884 18.8963 106.928 18.8883 106.976C18.8883 107.016 18.8883 107.06 18.8883 107.108H13.4043V106.472H18.4323L18.0963 106.724C18.0963 106.268 17.9963 105.864 17.7963 105.512C17.6043 105.152 17.3403 104.872 17.0043 104.672C16.6683 104.472 16.2803 104.372 15.8403 104.372C15.4083 104.372 15.0203 104.472 14.6763 104.672C14.3323 104.872 14.0643 105.152 13.8723 105.512C13.6803 105.872 13.5843 106.284 13.5843 106.748V106.88C13.5843 107.36 13.6883 107.784 13.8963 108.152C14.1123 108.512 14.4083 108.796 14.7843 109.004C15.1683 109.204 15.6043 109.304 16.0923 109.304C16.4763 109.304 16.8323 109.236 17.1603 109.1C17.4963 108.964 17.7843 108.756 18.0243 108.476L18.5043 109.028C18.2243 109.364 17.8723 109.62 17.4483 109.796C17.0323 109.972 16.5723 110.06 16.0683 110.06ZM20.7862 110V103.7H21.6382V106.484H25.6102V103.7H26.4622V110H25.6102V107.216H21.6382V110H20.7862ZM30.0839 110V104.216L30.2999 104.444H27.6959V103.7H33.3239V104.444H30.7199L30.9359 104.216V110H30.0839ZM37.8078 110.06C37.2638 110.06 36.7718 109.936 36.3318 109.688C35.8918 109.432 35.5398 109.068 35.2758 108.596C35.0198 108.116 34.8918 107.532 34.8918 106.844C34.8918 106.156 35.0198 105.576 35.2758 105.104C35.5318 104.624 35.8798 104.26 36.3198 104.012C36.7598 103.764 37.2558 103.64 37.8078 103.64C38.4078 103.64 38.9438 103.776 39.4158 104.048C39.8958 104.312 40.2718 104.688 40.5438 105.176C40.8158 105.656 40.9518 106.212 40.9518 106.844C40.9518 107.484 40.8158 108.044 40.5438 108.524C40.2718 109.004 39.8958 109.38 39.4158 109.652C38.9438 109.924 38.4078 110.06 37.8078 110.06ZM34.5558 112.328V103.7H35.3718V105.596L35.2878 106.856L35.4078 108.128V112.328H34.5558ZM37.7478 109.304C38.1958 109.304 38.5958 109.204 38.9478 109.004C39.2998 108.796 39.5798 108.508 39.7878 108.14C39.9958 107.764 40.0998 107.332 40.0998 106.844C40.0998 106.356 39.9958 105.928 39.7878 105.56C39.5798 105.192 39.2998 104.904 38.9478 104.696C38.5958 104.488 38.1958 104.384 37.7478 104.384C37.2998 104.384 36.8958 104.488 36.5358 104.696C36.1838 104.904 35.9038 105.192 35.6958 105.56C35.4958 105.928 35.3958 106.356 35.3958 106.844C35.3958 107.332 35.4958 107.764 35.6958 108.14C35.9038 108.508 36.1838 108.796 36.5358 109.004C36.8958 109.204 37.2998 109.304 37.7478 109.304ZM49.7989 110.072C49.1669 110.072 48.5829 109.968 48.0469 109.76C47.5109 109.544 47.0469 109.244 46.6549 108.86C46.2629 108.476 45.9549 108.024 45.7309 107.504C45.5149 106.984 45.4069 106.416 45.4069 105.8C45.4069 105.184 45.5149 104.616 45.7309 104.096C45.9549 103.576 46.2629 103.124 46.6549 102.74C47.0549 102.356 47.5229 102.06 48.0589 101.852C48.5949 101.636 49.1789 101.528 49.8109 101.528C50.4189 101.528 50.9909 101.632 51.5269 101.84C52.0629 102.04 52.5149 102.344 52.8829 102.752L52.3189 103.316C51.9749 102.964 51.5949 102.712 51.1789 102.56C50.7629 102.4 50.3149 102.32 49.8349 102.32C49.3309 102.32 48.8629 102.408 48.4309 102.584C47.9989 102.752 47.6229 102.996 47.3029 103.316C46.9829 103.628 46.7309 103.996 46.5469 104.42C46.3709 104.836 46.2829 105.296 46.2829 105.8C46.2829 106.304 46.3709 106.768 46.5469 107.192C46.7309 107.608 46.9829 107.976 47.3029 108.296C47.6229 108.608 47.9989 108.852 48.4309 109.028C48.8629 109.196 49.3309 109.28 49.8349 109.28C50.3149 109.28 50.7629 109.2 51.1789 109.04C51.5949 108.88 51.9749 108.624 52.3189 108.272L52.8829 108.836C52.5149 109.244 52.0629 109.552 51.5269 109.76C50.9909 109.968 50.4149 110.072 49.7989 110.072ZM54.6208 112.388C54.3248 112.388 54.0408 112.34 53.7688 112.244C53.5048 112.148 53.2768 112.004 53.0848 111.812L53.4808 111.176C53.6408 111.328 53.8128 111.444 53.9968 111.524C54.1888 111.612 54.4008 111.656 54.6328 111.656C54.9128 111.656 55.1528 111.576 55.3528 111.416C55.5608 111.264 55.7568 110.992 55.9408 110.6L56.3488 109.676L56.4448 109.544L59.0368 103.7H59.8768L56.7208 110.756C56.5448 111.164 56.3488 111.488 56.1328 111.728C55.9248 111.968 55.6968 112.136 55.4488 112.232C55.2008 112.336 54.9248 112.388 54.6208 112.388ZM56.3008 110.18L53.3968 103.7H54.2848L56.8528 109.484L56.3008 110.18ZM63.6684 110.06C63.0444 110.06 62.4844 109.924 61.9884 109.652C61.5004 109.372 61.1164 108.992 60.8364 108.512C60.5564 108.024 60.4164 107.468 60.4164 106.844C60.4164 106.212 60.5564 105.656 60.8364 105.176C61.1164 104.696 61.5004 104.32 61.9884 104.048C62.4844 103.776 63.0444 103.64 63.6684 103.64C64.2044 103.64 64.6884 103.744 65.1204 103.952C65.5524 104.16 65.8924 104.472 66.1404 104.888L65.5044 105.32C65.2884 105 65.0204 104.764 64.7004 104.612C64.3804 104.46 64.0324 104.384 63.6564 104.384C63.2084 104.384 62.8044 104.488 62.4444 104.696C62.0844 104.896 61.8004 105.18 61.5924 105.548C61.3844 105.916 61.2804 106.348 61.2804 106.844C61.2804 107.34 61.3844 107.772 61.5924 108.14C61.8004 108.508 62.0844 108.796 62.4444 109.004C62.8044 109.204 63.2084 109.304 63.6564 109.304C64.0324 109.304 64.3804 109.228 64.7004 109.076C65.0204 108.924 65.2884 108.692 65.5044 108.38L66.1404 108.812C65.8924 109.22 65.5524 109.532 65.1204 109.748C64.6884 109.956 64.2044 110.06 63.6684 110.06ZM67.7901 110V103.7H73.4541V110H72.6021V104.216L72.8181 104.444H68.4261L68.6421 104.216V110H67.7901ZM75.8761 110V103.7H76.7281V110H75.8761ZM76.3081 102.308C76.1321 102.308 75.9841 102.248 75.8641 102.128C75.7441 102.008 75.6841 101.864 75.6841 101.696C75.6841 101.528 75.7441 101.388 75.8641 101.276C75.9841 101.156 76.1321 101.096 76.3081 101.096C76.4841 101.096 76.6321 101.152 76.7521 101.264C76.8721 101.376 76.9321 101.516 76.9321 101.684C76.9321 101.86 76.8721 102.008 76.7521 102.128C76.6401 102.248 76.4921 102.308 76.3081 102.308ZM78.0053 109.988L78.0653 109.256C78.1213 109.264 78.1733 109.276 78.2213 109.292C78.2773 109.3 78.3253 109.304 78.3653 109.304C78.6213 109.304 78.8253 109.208 78.9773 109.016C79.1373 108.824 79.2573 108.568 79.3373 108.248C79.4173 107.928 79.4733 107.568 79.5053 107.168C79.5373 106.76 79.5653 106.352 79.5893 105.944L79.6973 103.7H84.3173V110H83.4653V104.192L83.6813 104.444H80.2493L80.4533 104.18L80.3573 106.004C80.3333 106.548 80.2893 107.068 80.2253 107.564C80.1693 108.06 80.0773 108.496 79.9493 108.872C79.8293 109.248 79.6613 109.544 79.4453 109.76C79.2293 109.968 78.9533 110.072 78.6173 110.072C78.5213 110.072 78.4213 110.064 78.3173 110.048C78.2213 110.032 78.1173 110.012 78.0053 109.988ZM89.4513 105.92C90.2433 105.928 90.8433 106.104 91.2513 106.448C91.6673 106.792 91.8753 107.288 91.8753 107.936C91.8753 108.608 91.6513 109.124 91.2033 109.484C90.7633 109.844 90.1233 110.02 89.2833 110.012L86.7393 110V103.7H87.5913V105.896L89.4513 105.92ZM89.2353 109.364C89.8193 109.372 90.2593 109.256 90.5553 109.016C90.8593 108.768 91.0113 108.408 91.0113 107.936C91.0113 107.464 90.8633 107.12 90.5673 106.904C90.2713 106.68 89.8273 106.564 89.2353 106.556L87.5913 106.532V109.34L89.2353 109.364ZM93.5011 110V103.7H94.3531V106.484H98.3251V103.7H99.1771V110H98.3251V107.216H94.3531V110H93.5011ZM101.599 110V103.7H102.451V108.704L106.663 103.7H107.419V110H106.567V104.984L102.367 110H101.599ZM108.828 110L111.492 106.544L111.48 106.964L108.948 103.7H109.908L111.984 106.4L111.624 106.388L113.7 103.7H114.636L112.08 107L112.092 106.544L114.78 110H113.808L111.612 107.12L111.948 107.168L109.788 110H108.828ZM27.4296 125L24.2016 120.812L24.9216 120.38L28.4496 125H27.4296ZM21.6816 125V116.6H22.5456V125H21.6816ZM22.2816 121.148V120.368H24.9096V121.148H22.2816ZM24.9936 120.896L24.1776 120.752L27.3096 116.6H28.2696L24.9936 120.896ZM32.1321 125.06C31.5241 125.06 30.9761 124.924 30.4881 124.652C30.0081 124.372 29.6281 123.992 29.3481 123.512C29.0681 123.024 28.9281 122.468 28.9281 121.844C28.9281 121.212 29.0681 120.656 29.3481 120.176C29.6281 119.696 30.0081 119.32 30.4881 119.048C30.9681 118.776 31.5161 118.64 32.1321 118.64C32.7561 118.64 33.3081 118.776 33.7881 119.048C34.2761 119.32 34.6561 119.696 34.9281 120.176C35.2081 120.656 35.3481 121.212 35.3481 121.844C35.3481 122.468 35.2081 123.024 34.9281 123.512C34.6561 123.992 34.2761 124.372 33.7881 124.652C33.3001 124.924 32.7481 125.06 32.1321 125.06ZM32.1321 124.304C32.5881 124.304 32.9921 124.204 33.3441 124.004C33.6961 123.796 33.9721 123.508 34.1721 123.14C34.3801 122.764 34.4841 122.332 34.4841 121.844C34.4841 121.348 34.3801 120.916 34.1721 120.548C33.9721 120.18 33.6961 119.896 33.3441 119.696C32.9921 119.488 32.5921 119.384 32.1441 119.384C31.6961 119.384 31.2961 119.488 30.9441 119.696C30.5921 119.896 30.3121 120.18 30.1041 120.548C29.8961 120.916 29.7921 121.348 29.7921 121.844C29.7921 122.332 29.8961 122.764 30.1041 123.14C30.3121 123.508 30.5921 123.796 30.9441 124.004C31.2961 124.204 31.6921 124.304 32.1321 124.304ZM37.169 125V118.7H38.033L40.889 123.536H40.529L43.433 118.7H44.225V125H43.445V119.672L43.601 119.744L40.889 124.232H40.505L37.769 119.696L37.949 119.66V125H37.169ZM46.7575 127.388C46.4615 127.388 46.1775 127.34 45.9055 127.244C45.6415 127.148 45.4135 127.004 45.2215 126.812L45.6175 126.176C45.7775 126.328 45.9495 126.444 46.1335 126.524C46.3255 126.612 46.5375 126.656 46.7695 126.656C47.0495 126.656 47.2895 126.576 47.4895 126.416C47.6975 126.264 47.8935 125.992 48.0775 125.6L48.4855 124.676L48.5815 124.544L51.1735 118.7H52.0135L48.8575 125.756C48.6815 126.164 48.4855 126.488 48.2695 126.728C48.0615 126.968 47.8335 127.136 47.5855 127.232C47.3375 127.336 47.0615 127.388 46.7575 127.388ZM48.4375 125.18L45.5335 118.7H46.4215L48.9895 124.484L48.4375 125.18ZM53.3409 125V118.7H54.1929V121.484H58.1649V118.7H59.0169V125H58.1649V122.216H54.1929V125H53.3409ZM61.4386 125V118.7H62.2906V125H61.4386ZM61.8706 117.308C61.6946 117.308 61.5466 117.248 61.4266 117.128C61.3066 117.008 61.2466 116.864 61.2466 116.696C61.2466 116.528 61.3066 116.388 61.4266 116.276C61.5466 116.156 61.6946 116.096 61.8706 116.096C62.0466 116.096 62.1946 116.152 62.3146 116.264C62.4346 116.376 62.4946 116.516 62.4946 116.684C62.4946 116.86 62.4346 117.008 62.3146 117.128C62.2026 117.248 62.0546 117.308 61.8706 117.308ZM69.3398 125L66.7478 121.88L67.4558 121.46L70.3478 125H69.3398ZM64.7198 125V118.7H65.5718V125H64.7198ZM65.3078 122.192V121.46H67.3358V122.192H65.3078ZM67.5278 121.94L66.7358 121.82L69.2438 118.7H70.1678L67.5278 121.94ZM75.4873 125V123.608L75.4513 123.38V121.052C75.4513 120.516 75.2993 120.104 74.9953 119.816C74.6993 119.528 74.2553 119.384 73.6633 119.384C73.2553 119.384 72.8673 119.452 72.4993 119.588C72.1313 119.724 71.8193 119.904 71.5633 120.128L71.1793 119.492C71.4993 119.22 71.8833 119.012 72.3313 118.868C72.7793 118.716 73.2513 118.64 73.7473 118.64C74.5633 118.64 75.1913 118.844 75.6313 119.252C76.0793 119.652 76.3033 120.264 76.3033 121.088V125H75.4873ZM73.3153 125.06C72.8433 125.06 72.4313 124.984 72.0793 124.832C71.7353 124.672 71.4713 124.456 71.2873 124.184C71.1033 123.904 71.0113 123.584 71.0113 123.224C71.0113 122.896 71.0873 122.6 71.2393 122.336C71.3993 122.064 71.6553 121.848 72.0073 121.688C72.3673 121.52 72.8473 121.436 73.4473 121.436H75.6193V122.072H73.4713C72.8633 122.072 72.4393 122.18 72.1993 122.396C71.9673 122.612 71.8513 122.88 71.8513 123.2C71.8513 123.56 71.9913 123.848 72.2713 124.064C72.5513 124.28 72.9433 124.388 73.4473 124.388C73.9273 124.388 74.3393 124.28 74.6833 124.064C75.0353 123.84 75.2913 123.52 75.4513 123.104L75.6433 123.692C75.4833 124.108 75.2033 124.44 74.8033 124.688C74.4113 124.936 73.9153 125.06 73.3153 125.06ZM78.5714 125V118.7H79.4234V124.256H83.2754V118.7H84.1274V125H78.5714ZM84.3434 126.524V124.928L84.5594 125H83.2754V124.256H85.1474V126.524H84.3434ZM86.7745 125V118.7H87.6265V125H86.7745ZM87.2065 117.308C87.0305 117.308 86.8825 117.248 86.7625 117.128C86.6425 117.008 86.5825 116.864 86.5825 116.696C86.5825 116.528 86.6425 116.388 86.7625 116.276C86.8825 116.156 87.0305 116.096 87.2065 116.096C87.3825 116.096 87.5305 116.152 87.6505 116.264C87.7705 116.376 87.8305 116.516 87.8305 116.684C87.8305 116.86 87.7705 117.008 87.6505 117.128C87.5385 117.248 87.3905 117.308 87.2065 117.308ZM90.0558 125V118.7H90.9078V123.704L95.1198 118.7H95.8758V125H95.0238V119.984L90.8238 125H90.0558ZM92.9118 117.788C92.3838 117.788 91.9558 117.656 91.6278 117.392C91.3078 117.12 91.1398 116.732 91.1238 116.228H91.7358C91.7438 116.548 91.8558 116.8 92.0718 116.984C92.2878 117.168 92.5678 117.26 92.9118 117.26C93.2558 117.26 93.5358 117.168 93.7518 116.984C93.9758 116.8 94.0918 116.548 94.0998 116.228H94.7118C94.7038 116.732 94.5358 117.12 94.2078 117.392C93.8798 117.656 93.4478 117.788 92.9118 117.788Z" fill="black"/>
<path d="M31.1855 44L17.1855 31H27.6855V20C29.1855 21.6667 33.7855 26.6 40.1855 33C46.5855 39.4 51.6855 36.5 55.6855 31V41.5C51.6855 44.7 45.6855 45 40.1855 43C42.5855 48.6 41.6855 53.5 38.6855 58H28.6855C35.8855 53.2 33.3522 46.6667 31.1855 44Z" fill="#0895FF"/>
<path d="M83.1855 76L97.1855 89L86.6855 89L86.6855 100C85.1855 98.3333 80.5855 93.4 74.1855 87C67.7855 80.6 62.6855 83.5 58.6855 89L58.6855 78.5C62.6855 75.3 68.6855 75 74.1855 77C71.7855 71.4 72.6855 66.5 75.6856 62L85.6856 62C78.4855 66.8 81.0189 73.3333 83.1855 76Z" fill="#0895FF"/>
<path d="M72.6855 34L85.6855 20L85.6855 30.5L96.6855 30.5C95.0189 32 90.0855 36.6 83.6855 43C77.2855 49.4 80.1855 54.5 85.6855 58.5L75.1855 58.5C71.9855 54.5 71.6855 48.5 73.6855 43C68.0855 45.4 63.1855 44.5 58.6855 41.5L58.6855 31.5C63.4855 38.7 70.0189 36.1667 72.6855 34Z" fill="#FFC810"/>
<path d="M41.6855 86.5L28.6855 100.5L28.6855 90L17.6855 90C19.3522 88.5 24.2855 83.9 30.6855 77.5C37.0855 71.1 34.1855 66 28.6855 62L39.1855 62C42.3855 66 42.6855 72 40.6855 77.5C46.2855 75.1 51.1855 76 55.6855 79L55.6855 89C50.8855 81.8 44.3522 84.3333 41.6855 86.5Z" fill="#FFC810"/>
<circle cx="48.1855" cy="50.5" r="5.5" fill="#0895FF"/>
<circle cx="66.1855" cy="69.5" r="5.5" fill="#0895FF"/>
<circle cx="48.1855" cy="69.5" r="5.5" fill="#FFC810"/>
<circle cx="66.1855" cy="50.5" r="5.5" fill="#FFC810"/>
</svg>
