<svg width="24" height="24" viewBox="0 0 24 24" fill="none" xmlns="http://www.w3.org/2000/svg">
<path fill-rule="evenodd" clip-rule="evenodd" d="M11.9999 0.000244141C5.38329 0.000244141 0 5.38215 0 12.0002C0 18.617 5.38329 23.9995 11.9999 23.9995C18.6166 23.9995 24 18.617 24 12.0002C24 5.38215 18.6166 0.000244141 11.9999 0.000244141ZM18.6899 7.99827L11.3053 16.306C11.1235 16.5099 10.8701 16.615 10.6148 16.615C10.4123 16.615 10.2088 16.5486 10.0385 16.4137L5.42298 12.7208C5.02512 12.4028 4.96059 11.8215 5.27904 11.4228C5.5971 11.0254 6.17855 10.9602 6.5764 11.2789L10.5073 14.4234L17.3099 6.77117C17.6478 6.38925 18.2321 6.35505 18.6129 6.69442C18.9941 7.03312 19.0287 7.61634 18.6899 7.99827Z" fill="#4C40F7"/>
</svg>
